<svg xmlns="http://www.w3.org/2000/svg" viewBox="0 0 960 535" font-family="'Helvetica Neue', Helvetica, Arial, sans-serif">
  <metadata>Generated by thesis-results-assets from experiments/2026-08-21_01-hauptrun/analysis/statistics-v3/contrast_results.csv and experiments/2026-08-25_01-hauptrun-qwen/analysis/statistics-v3/contrast_results.csv</metadata>
  <rect x="0.0" y="0.0" width="960.0" height="535.0" rx="0" fill="#ffffff"/>
  <line x1="300.5" y1="43.0" x2="300.5" y2="464.0" stroke="#e1e0d9" stroke-width="1" stroke-linecap="round"/>
  <text x="300.5" y="484.0" font-size="11" fill="#898781" text-anchor="middle">-20</text>
  <line x1="431.5" y1="43.0" x2="431.5" y2="464.0" stroke="#e1e0d9" stroke-width="1" stroke-linecap="round"/>
  <text x="431.5" y="484.0" font-size="11" fill="#898781" text-anchor="middle">-10</text>
  <line x1="562.5" y1="43.0" x2="562.5" y2="464.0" stroke="#898781" stroke-width="1.2" stroke-linecap="round"/>
  <text x="562.5" y="484.0" font-size="11" fill="#898781" text-anchor="middle">+0</text>
  <line x1="693.5" y1="43.0" x2="693.5" y2="464.0" stroke="#e1e0d9" stroke-width="1" stroke-linecap="round"/>
  <text x="693.5" y="484.0" font-size="11" fill="#898781" text-anchor="middle">+10</text>
  <line x1="824.5" y1="43.0" x2="824.5" y2="464.0" stroke="#e1e0d9" stroke-width="1" stroke-linecap="round"/>
  <text x="824.5" y="484.0" font-size="11" fill="#898781" text-anchor="middle">+20</text>
  <text x="30.0" y="84.0" font-size="13" fill="#52514e" text-anchor="start" font-weight="600">RQ1</text>
  <text x="100.0" y="84.0" font-size="12" fill="#0b0b0b" text-anchor="start" font-weight="600">K1 − K0</text>
  <line x1="344.4" y1="71.0" x2="626.5" y2="71.0" stroke="#2aa198" stroke-width="2.2" stroke-linecap="round"/>
  <line x1="344.4" y1="67.0" x2="344.4" y2="75.0" stroke="#2aa198" stroke-width="1.5" stroke-linecap="round"/>
  <line x1="626.5" y1="67.0" x2="626.5" y2="75.0" stroke="#2aa198" stroke-width="1.5" stroke-linecap="round"/>
  <circle cx="485.4" cy="71.0" r="5.0" fill="#2aa198" stroke="#ffffff" stroke-width="1.2"/>
  <text x="900.0" y="75.0" font-size="11" fill="#2aa198" text-anchor="start">GLM</text>
  <line x1="433.8" y1="89.0" x2="652.7" y2="89.0" stroke="#8250df" stroke-width="2.2" stroke-linecap="round"/>
  <line x1="433.8" y1="85.0" x2="433.8" y2="93.0" stroke="#8250df" stroke-width="1.5" stroke-linecap="round"/>
  <line x1="652.7" y1="85.0" x2="652.7" y2="93.0" stroke="#8250df" stroke-width="1.5" stroke-linecap="round"/>
  <polygon points="543.2,83.0 549.2,89.0 543.2,95.0 537.2,89.0" fill="#8250df" stroke="#ffffff" stroke-width="1.2"/>
  <text x="900.0" y="93.0" font-size="11" fill="#8250df" text-anchor="start">Qwen</text>
  <line x1="48.0" y1="109.0" x2="890.0" y2="109.0" stroke="#e1e0d9" stroke-width="1" stroke-linecap="round"/>
  <text x="100.0" y="142.0" font-size="12" fill="#0b0b0b" text-anchor="start" font-weight="600">K2 − K0</text>
  <line x1="364.0" y1="129.0" x2="666.1" y2="129.0" stroke="#2aa198" stroke-width="2.2" stroke-linecap="round"/>
  <line x1="364.0" y1="125.0" x2="364.0" y2="133.0" stroke="#2aa198" stroke-width="1.5" stroke-linecap="round"/>
  <line x1="666.1" y1="125.0" x2="666.1" y2="133.0" stroke="#2aa198" stroke-width="1.5" stroke-linecap="round"/>
  <circle cx="515.0" cy="129.0" r="5.0" fill="#2aa198" stroke="#ffffff" stroke-width="1.2"/>
  <line x1="528.1" y1="147.0" x2="653.9" y2="147.0" stroke="#8250df" stroke-width="2.2" stroke-linecap="round"/>
  <line x1="528.1" y1="143.0" x2="528.1" y2="151.0" stroke="#8250df" stroke-width="1.5" stroke-linecap="round"/>
  <line x1="653.9" y1="143.0" x2="653.9" y2="151.0" stroke="#8250df" stroke-width="1.5" stroke-linecap="round"/>
  <polygon points="591.0,141.0 597.0,147.0 591.0,153.0 585.0,147.0" fill="#8250df" stroke="#ffffff" stroke-width="1.2"/>
  <line x1="48.0" y1="167.0" x2="890.0" y2="167.0" stroke="#e1e0d9" stroke-width="1" stroke-linecap="round"/>
  <text x="30.0" y="200.0" font-size="13" fill="#52514e" text-anchor="start" font-weight="600">RQ2</text>
  <text x="100.0" y="200.0" font-size="12" fill="#0b0b0b" text-anchor="start" font-weight="600">K1s − K1</text>
  <line x1="597.8" y1="187.0" x2="879.1" y2="187.0" stroke="#2aa198" stroke-width="2.2" stroke-linecap="round"/>
  <line x1="597.8" y1="183.0" x2="597.8" y2="191.0" stroke="#2aa198" stroke-width="1.5" stroke-linecap="round"/>
  <line x1="879.1" y1="183.0" x2="879.1" y2="191.0" stroke="#2aa198" stroke-width="1.5" stroke-linecap="round"/>
  <circle cx="738.5" cy="187.0" r="5.0" fill="#2aa198" stroke="#ffffff" stroke-width="1.2"/>
  <line x1="499.9" y1="205.0" x2="701.0" y2="205.0" stroke="#8250df" stroke-width="2.2" stroke-linecap="round"/>
  <line x1="499.9" y1="201.0" x2="499.9" y2="209.0" stroke="#8250df" stroke-width="1.5" stroke-linecap="round"/>
  <line x1="701.0" y1="201.0" x2="701.0" y2="209.0" stroke="#8250df" stroke-width="1.5" stroke-linecap="round"/>
  <polygon points="600.5,199.0 606.5,205.0 600.5,211.0 594.5,205.0" fill="#8250df" stroke="#ffffff" stroke-width="1.2"/>
  <line x1="48.0" y1="225.0" x2="890.0" y2="225.0" stroke="#e1e0d9" stroke-width="1" stroke-linecap="round"/>
  <text x="100.0" y="258.0" font-size="12" fill="#0b0b0b" text-anchor="start" font-weight="600">K2s − K2</text>
  <line x1="511.2" y1="245.0" x2="819.6" y2="245.0" stroke="#2aa198" stroke-width="2.2" stroke-linecap="round"/>
  <line x1="511.2" y1="241.0" x2="511.2" y2="249.0" stroke="#2aa198" stroke-width="1.5" stroke-linecap="round"/>
  <line x1="819.6" y1="241.0" x2="819.6" y2="249.0" stroke="#2aa198" stroke-width="1.5" stroke-linecap="round"/>
  <circle cx="665.4" cy="245.0" r="5.0" fill="#2aa198" stroke="#ffffff" stroke-width="1.2"/>
  <line x1="521.9" y1="263.0" x2="660.9" y2="263.0" stroke="#8250df" stroke-width="2.2" stroke-linecap="round"/>
  <line x1="521.9" y1="259.0" x2="521.9" y2="267.0" stroke="#8250df" stroke-width="1.5" stroke-linecap="round"/>
  <line x1="660.9" y1="259.0" x2="660.9" y2="267.0" stroke="#8250df" stroke-width="1.5" stroke-linecap="round"/>
  <polygon points="591.4,257.0 597.4,263.0 591.4,269.0 585.4,263.0" fill="#8250df" stroke="#ffffff" stroke-width="1.2"/>
  <line x1="48.0" y1="283.0" x2="890.0" y2="283.0" stroke="#e1e0d9" stroke-width="1" stroke-linecap="round"/>
  <text x="30.0" y="316.0" font-size="13" fill="#52514e" text-anchor="start" font-weight="600">RQ3</text>
  <text x="100.0" y="316.0" font-size="12" fill="#0b0b0b" text-anchor="start" font-weight="600">K0d − K0</text>
  <line x1="292.6" y1="303.0" x2="623.6" y2="303.0" stroke="#2aa198" stroke-width="2.2" stroke-linecap="round"/>
  <line x1="292.6" y1="299.0" x2="292.6" y2="307.0" stroke="#2aa198" stroke-width="1.5" stroke-linecap="round"/>
  <line x1="623.6" y1="299.0" x2="623.6" y2="307.0" stroke="#2aa198" stroke-width="1.5" stroke-linecap="round"/>
  <circle cx="458.1" cy="303.0" r="5.0" fill="#2aa198" stroke="#ffffff" stroke-width="1.2"/>
  <line x1="537.0" y1="321.0" x2="683.0" y2="321.0" stroke="#8250df" stroke-width="2.2" stroke-linecap="round"/>
  <line x1="537.0" y1="317.0" x2="537.0" y2="325.0" stroke="#8250df" stroke-width="1.5" stroke-linecap="round"/>
  <line x1="683.0" y1="317.0" x2="683.0" y2="325.0" stroke="#8250df" stroke-width="1.5" stroke-linecap="round"/>
  <polygon points="610.0,315.0 616.0,321.0 610.0,327.0 604.0,321.0" fill="#8250df" stroke="#ffffff" stroke-width="1.2"/>
  <line x1="48.0" y1="341.0" x2="890.0" y2="341.0" stroke="#e1e0d9" stroke-width="1" stroke-linecap="round"/>
  <text x="100.0" y="374.0" font-size="12" fill="#0b0b0b" text-anchor="start" font-weight="600">K1 − K0d</text>
  <line x1="436.9" y1="361.0" x2="726.6" y2="361.0" stroke="#2aa198" stroke-width="2.2" stroke-linecap="round"/>
  <line x1="436.9" y1="357.0" x2="436.9" y2="365.0" stroke="#2aa198" stroke-width="1.5" stroke-linecap="round"/>
  <line x1="726.6" y1="357.0" x2="726.6" y2="365.0" stroke="#2aa198" stroke-width="1.5" stroke-linecap="round"/>
  <circle cx="581.8" cy="361.0" r="5.0" fill="#2aa198" stroke="#ffffff" stroke-width="1.2"/>
  <line x1="385.0" y1="379.0" x2="605.1" y2="379.0" stroke="#8250df" stroke-width="2.2" stroke-linecap="round"/>
  <line x1="385.0" y1="375.0" x2="385.0" y2="383.0" stroke="#8250df" stroke-width="1.5" stroke-linecap="round"/>
  <line x1="605.1" y1="375.0" x2="605.1" y2="383.0" stroke="#8250df" stroke-width="1.5" stroke-linecap="round"/>
  <polygon points="495.1,373.0 501.1,379.0 495.1,385.0 489.1,379.0" fill="#8250df" stroke="#ffffff" stroke-width="1.2"/>
  <line x1="48.0" y1="399.0" x2="890.0" y2="399.0" stroke="#e1e0d9" stroke-width="1" stroke-linecap="round"/>
  <text x="100.0" y="432.0" font-size="12" fill="#0b0b0b" text-anchor="start" font-weight="600">K2 − K0d</text>
  <line x1="485.2" y1="419.0" x2="753.7" y2="419.0" stroke="#2aa198" stroke-width="2.2" stroke-linecap="round"/>
  <line x1="485.2" y1="415.0" x2="485.2" y2="423.0" stroke="#2aa198" stroke-width="1.5" stroke-linecap="round"/>
  <line x1="753.7" y1="415.0" x2="753.7" y2="423.0" stroke="#2aa198" stroke-width="1.5" stroke-linecap="round"/>
  <circle cx="619.5" cy="419.0" r="5.0" fill="#2aa198" stroke="#ffffff" stroke-width="1.2"/>
  <line x1="467.3" y1="437.0" x2="619.7" y2="437.0" stroke="#8250df" stroke-width="2.2" stroke-linecap="round"/>
  <line x1="467.3" y1="433.0" x2="467.3" y2="441.0" stroke="#8250df" stroke-width="1.5" stroke-linecap="round"/>
  <line x1="619.7" y1="433.0" x2="619.7" y2="441.0" stroke="#8250df" stroke-width="1.5" stroke-linecap="round"/>
  <polygon points="543.5,431.0 549.5,437.0 543.5,443.0 537.5,437.0" fill="#8250df" stroke="#ffffff" stroke-width="1.2"/>
  <text x="562.5" y="507.0" font-size="13" fill="#52514e" text-anchor="middle">Mean paired difference in pass@1 [pp]</text>
</svg>
